HIERARCHY
ROOT joint_Root
{
	OFFSET 0.0 0.0 0.0
	CHANNELS 6 Xposition Yposition Zposition Zrotation Xrotation Yrotation 
	JOINT Hips
	{
		OFFSET -17.1583 93.1646 452.98
		CHANNELS 6 Xposition Yposition Zposition Zrotation Xrotation Yrotation 
		JOINT Spine
		{
			OFFSET 15.7357 0.0 0.0
			CHANNELS 6 Xposition Yposition Zposition Zrotation Xrotation Yrotation 
			JOINT Chest
			{
				OFFSET 8.98455 -0.406207 0.0
				CHANNELS 6 Xposition Yposition Zposition Zrotation Xrotation Yrotation 
				JOINT Neck
				{
					OFFSET 16.3773 0.0 0.0
					CHANNELS 6 Xposition Yposition Zposition Zrotation Xrotation Yrotation 
					JOINT Head
					{
						OFFSET 6.45672 0.0 0.0
						CHANNELS 6 Xposition Yposition Zposition Zrotation Xrotation Yrotation 
						End Site
						{
							OFFSET 0.0 0.0 0.0
						}
					}
				}
				JOINT Shoulder_L
				{
					OFFSET 12.9942 -0.242716 4.98039
					CHANNELS 6 Xposition Yposition Zposition Zrotation Xrotation Yrotation 
					JOINT UpperArm_L
					{
						OFFSET 5.34809 0.0 0.0
						CHANNELS 6 Xposition Yposition Zposition Zrotation Xrotation Yrotation 
						JOINT LowerArm_L
						{
							OFFSET 24.3286 1.87007e-05 0.0
							CHANNELS 6 Xposition Yposition Zposition Zrotation Xrotation Yrotation 
							JOINT Hand_L
							{
								OFFSET 22.2916 0.0 0.0
								CHANNELS 6 Xposition Yposition Zposition Zrotation Xrotation Yrotation 
								End Site
								{
									OFFSET 0.0 0.0 0.0
								}
							}
						}
					}
				}
				JOINT Shoulder_R
				{
					OFFSET 12.9945 -0.242716 -4.98039
					CHANNELS 6 Xposition Yposition Zposition Zrotation Xrotation Yrotation 
					JOINT UpperArm_R
					{
						OFFSET -5.34813 0.0 0.0
						CHANNELS 6 Xposition Yposition Zposition Zrotation Xrotation Yrotation 
						JOINT LowerArm_R
						{
							OFFSET -24.3289 0.000322201 0.0
							CHANNELS 6 Xposition Yposition Zposition Zrotation Xrotation Yrotation 
							JOINT Hand_R
							{
								OFFSET -22.2915 -0.000108084 0.0
								CHANNELS 6 Xposition Yposition Zposition Zrotation Xrotation Yrotation 
								End Site
								{
									OFFSET 0.0 0.0 0.0
								}
							}
						}
					}
				}
			}
		}
		JOINT UpperLeg_L
		{
			OFFSET -2.19248 -6.46944 0.0
			CHANNELS 6 Xposition Yposition Zposition Zrotation Xrotation Yrotation 
			JOINT LowerLeg_L
			{
				OFFSET 39.0811 0.0 -1.23785e-05
				CHANNELS 6 Xposition Yposition Zposition Zrotation Xrotation Yrotation 
				JOINT Foot_L
				{
					OFFSET 40.9854 0.0 -1.26872e-05
					CHANNELS 6 Xposition Yposition Zposition Zrotation Xrotation Yrotation 
					JOINT Toes_L
					{
						OFFSET 11.7543 0.0 0.0
						CHANNELS 6 Xposition Yposition Zposition Zrotation Xrotation Yrotation 
						End Site
						{
							OFFSET 0.0 0.0 0.0
						}
					}
				}
			}
		}
		JOINT UpperLeg_R
		{
			OFFSET -2.19251 6.46944 0.0
			CHANNELS 6 Xposition Yposition Zposition Zrotation Xrotation Yrotation 
			JOINT LowerLeg_R
			{
				OFFSET -39.0811 -0.00228153 -0.0401928
				CHANNELS 6 Xposition Yposition Zposition Zrotation Xrotation Yrotation 
				JOINT Foot_R
				{
					OFFSET -40.9854 0.0 0.0
					CHANNELS 6 Xposition Yposition Zposition Zrotation Xrotation Yrotation 
					JOINT Toes_R
					{
						OFFSET -11.7543 0.0 0.0
						CHANNELS 6 Xposition Yposition Zposition Zrotation Xrotation Yrotation 
						End Site
						{
							OFFSET 0.0 0.0 0.0
						}
					}
				}
			}
		}
	}
}
MOTION
Frames:	7
Frame Time:	0.0333333
0.000000 0.000000 0.000000 0.000000 0.000000 -0.000000 127.561000 89.731000 211.397000 -87.947100 54.441400 179.404000 15.735700 0.000005 -0.000001 100.569000 86.363900 -99.044600 8.984550 -0.406207 -0.000000 -0.631592 1.221920 3.054180 16.377300 -0.000001 -0.000001 11.106700 16.528500 -2.330470 6.456720 -0.000001 -0.000000 6.802060 25.695600 -6.622670 12.994200 -0.242716 4.980390 -93.533200 8.559030 -67.468300 5.348090 -0.000007 -0.000001 -72.821400 -4.912360 6.161400 24.328600 0.000019 0.000005 5.210660 13.149700 -21.842900 22.291600 -0.000001 0.000005 48.480100 4.451820 17.389200 12.994500 -0.242716 -4.980390 89.011600 2.833660 -70.762000 -5.348130 -0.000001 -0.000004 -73.310500 16.239000 -3.928690 -24.328900 0.000322 -0.000009 5.167860 9.911060 -27.724800 -22.291500 -0.000108 -0.000004 31.025400 5.501630 -6.599140 -2.192480 -6.469440 -0.000000 167.432000 -3.701740 -14.269400 39.081100 -0.000007 -0.000012 0.368667 -0.695405 27.931000 40.985400 -0.000006 -0.000013 15.039500 1.260330 -67.429800 11.754300 -0.000000 0.000003 0.000215 0.163915 -9.928690 -2.192510 6.469440 -0.000001 172.804000 4.862290 162.927000 -39.081100 -0.002282 -0.040193 0.152462 -0.060116 68.071200 -40.985400 0.000008 0.000006 -4.225610 -9.640850 -44.582200 -11.754300 -0.000006 -0.000006 -0.001465 0.189480 -8.886560
0.000000 0.000000 0.000000 0.000000 0.000000 -0.000000 130.509000 90.346800 209.302000 -86.145600 50.513100 178.831000 15.735700 0.000005 -0.000001 89.194400 86.245100 -87.091700 8.984550 -0.406207 -0.000000 -0.248946 -0.252555 4.202530 16.377300 -0.000001 -0.000001 10.874900 15.959200 -2.817010 6.456720 -0.000001 -0.000000 6.872050 25.300200 -6.919840 12.994200 -0.242716 4.980390 -93.548000 8.804470 -67.947700 5.348090 -0.000007 -0.000001 -74.093300 2.136200 4.974710 24.328600 0.000019 0.000005 8.300620 15.059200 -29.313700 22.291600 -0.000001 0.000005 47.694900 4.504670 16.522600 12.994500 -0.242716 -4.980390 89.135700 2.427960 -70.399600 -5.348130 -0.000001 -0.000004 -73.409500 14.672100 -1.274960 -24.328900 0.000322 -0.000009 4.115300 9.711840 -23.103900 -22.291500 -0.000108 -0.000004 29.293200 5.497390 -6.428410 -2.192480 -6.469440 -0.000000 169.104000 -1.992650 -8.868620 39.081100 -0.000007 -0.000012 0.294639 -0.626763 25.178700 40.985400 -0.000006 -0.000013 15.231300 3.055540 -68.858900 11.754300 -0.000000 0.000003 0.000234 0.163596 -9.941640 -2.192510 6.469440 -0.000001 174.612000 2.936050 160.860000 -39.081100 -0.002282 -0.040193 0.059790 -0.025163 66.043900 -40.985400 0.000008 0.000006 -3.735020 -12.513000 -51.979700 -11.754300 -0.000006 -0.000006 -0.001762 0.193367 -8.728510
0.000000 0.000000 0.000000 0.000000 0.000000 -0.000000 133.285000 90.994600 207.496000 -84.381200 46.080600 177.940000 15.735700 0.000005 -0.000001 78.702000 86.033700 -76.022400 8.984550 -0.406207 -0.000000 0.059347 -1.733770 5.357080 16.377300 -0.000001 -0.000001 10.247500 15.297200 -2.807200 6.456720 -0.000001 -0.000000 6.627240 24.548900 -7.404750 12.994200 -0.242716 4.980390 -93.492400 8.938520 -68.555900 5.348090 -0.000007 -0.000001 -74.085200 7.122270 3.239060 24.328600 0.000019 0.000005 13.409600 17.906100 -37.788900 22.291600 -0.000001 0.000005 47.864000 4.576760 15.312300 12.994500 -0.242716 -4.980390 89.219600 2.152480 -70.065700 -5.348130 -0.000001 -0.000004 -73.251900 12.710500 1.244260 -24.328900 0.000322 -0.000009 3.493920 10.305300 -18.850500 -22.291500 -0.000108 -0.000004 28.508100 5.483440 -5.880360 -2.192480 -6.469440 -0.000000 171.256000 -0.264517 -3.814380 39.081100 -0.000007 -0.000012 0.203836 -0.514835 21.600200 40.985400 -0.000006 -0.000013 15.313000 5.817950 -69.891000 11.754300 -0.000000 0.000003 0.000712 0.154638 -10.305300 -2.192510 6.469440 -0.000001 176.478000 0.395391 159.226000 -39.081100 -0.002282 -0.040193 0.007001 -0.002117 60.911500 -40.985400 0.000008 0.000006 -3.942080 -16.009600 -57.882100 -11.754300 -0.000006 -0.000006 -0.001564 0.190788 -8.833380
0.000000 0.000000 0.000000 0.000000 0.000000 -0.000000 135.876000 91.556700 205.748000 -83.452100 41.807100 177.327000 15.735700 0.000005 -0.000001 71.476000 85.807400 -68.408900 8.984550 -0.406207 -0.000000 0.269820 -2.863720 6.137860 16.377300 -0.000001 -0.000001 9.266080 14.559800 -2.628820 6.456720 -0.000001 -0.000000 6.167690 23.577100 -7.710320 12.994200 -0.242716 4.980390 -93.373400 8.917070 -69.179100 5.348090 -0.000007 -0.000001 -73.202700 10.746500 0.736312 24.328600 0.000019 0.000005 19.469000 19.642600 -46.440900 22.291600 -0.000001 0.000005 48.239800 4.610600 14.732000 12.994500 -0.242716 -4.980390 89.283200 1.961360 -69.919700 -5.348130 -0.000001 -0.000004 -72.894200 10.564500 3.672390 -24.328900 0.000322 -0.000009 3.313950 12.350900 -15.152200 -22.291500 -0.000108 -0.000004 27.721900 5.465420 -5.200270 -2.192480 -6.469440 -0.000000 173.640000 1.581640 -0.601317 39.081100 -0.000007 -0.000012 0.047931 -0.135660 19.459200 40.985400 -0.000006 -0.000013 9.986760 9.488540 -68.475900 11.754300 -0.000000 0.000003 0.001823 0.127147 -11.420700 -2.192510 6.469440 -0.000001 177.203000 -2.901600 158.081000 -39.081100 -0.002282 -0.040193 -0.011874 0.011365 53.048600 -40.985400 0.000008 0.000006 -3.859100 -18.786800 -61.388600 -11.754300 -0.000006 -0.000006 -0.001193 0.185775 -9.037180
0.000000 0.000000 0.000000 0.000000 0.000000 -0.000000 138.375000 92.021800 203.953000 -83.331000 37.570900 177.266000 15.735700 0.000005 -0.000001 66.345500 85.583100 -63.154400 8.984550 -0.406207 -0.000000 0.439795 -3.747020 6.393970 16.377300 -0.000001 -0.000001 8.090600 13.697100 -2.259690 6.456720 -0.000001 -0.000000 5.678690 22.415000 -7.714720 12.994200 -0.242716 4.980390 -93.178000 8.667340 -69.773900 5.348090 -0.000007 -0.000001 -71.644600 13.599300 -2.420720 24.328600 0.000019 0.000005 24.853300 19.591300 -54.098500 22.291600 -0.000001 0.000005 48.496700 4.633300 14.337900 12.994500 -0.242716 -4.980390 89.294600 1.916540 -69.789400 -5.348130 -0.000001 -0.000004 -72.541800 8.780250 6.164140 -24.328900 0.000322 -0.000009 2.964730 14.151800 -11.964400 -22.291500 -0.000108 -0.000004 26.679000 5.457380 -4.905680 -2.192480 -6.469440 -0.000000 174.983000 4.199740 2.223530 39.081100 -0.000007 -0.000012 -0.002765 0.008773 17.492700 40.985400 -0.000006 -0.000013 6.594780 11.387800 -66.848300 11.754300 -0.000000 0.000003 0.002252 0.109622 -12.131400 -2.192510 6.469440 -0.000001 176.562000 -6.743370 157.995000 -39.081100 -0.002282 -0.040193 -0.008821 0.012913 43.118900 -40.985400 0.000008 0.000006 -3.585900 -20.420300 -64.357500 -11.754300 -0.000006 -0.000006 -0.001792 0.193754 -8.712790
0.000000 0.000000 0.000000 0.000000 0.000000 -0.000000 140.785000 92.243900 202.063000 -83.619300 34.055500 177.446000 15.735700 0.000005 -0.000001 64.134500 85.453200 -60.984400 8.984550 -0.406207 -0.000000 0.541521 -4.164380 6.317570 16.377300 -0.000001 -0.000001 7.051290 12.831300 -1.816010 6.456720 -0.000001 -0.000000 5.234590 21.111400 -7.762820 12.994200 -0.242716 4.980390 -92.926200 8.227570 -70.343700 5.348090 -0.000007 -0.000001 -70.178900 15.051600 -5.753610 24.328600 0.000019 0.000005 29.864400 18.954900 -60.502900 22.291600 -0.000001 0.000005 48.979500 4.650930 14.029000 12.994500 -0.242716 -4.980390 89.366900 1.718160 -69.768500 -5.348130 -0.000001 -0.000004 -72.474000 7.368110 8.558300 -24.328900 0.000322 -0.000009 2.651200 16.130600 -9.466120 -22.291500 -0.000108 -0.000004 26.508200 5.445160 -4.467380 -2.192480 -6.469440 -0.000000 175.556000 6.047400 4.305110 39.081100 -0.000007 -0.000012 -0.003579 0.011683 17.030500 40.985400 -0.000006 -0.000013 6.600690 12.610900 -66.103500 11.754300 -0.000000 0.000003 0.002383 0.066660 -13.873100 -2.192510 6.469440 -0.000001 174.714000 -11.607600 158.522000 -39.081100 -0.002282 -0.040193 -0.000290 0.005692 32.220000 -40.985400 0.000008 0.000006 -2.993050 -19.776600 -66.378200 -11.754300 -0.000006 -0.000006 -0.001575 0.190932 -8.827530
0.000000 0.000000 0.000000 0.000000 0.000000 -0.000000 143.215000 92.196200 199.959000 -83.991600 31.702000 177.648000 15.735700 0.000005 -0.000001 64.407800 85.424700 -61.386900 8.984550 -0.406207 -0.000000 0.605887 -4.140050 6.061410 16.377300 -0.000001 -0.000001 5.989390 12.170400 -1.342890 6.456720 -0.000001 -0.000000 4.912020 20.077900 -7.836290 12.994200 -0.242716 4.980390 -92.720200 7.791950 -70.687400 5.348090 -0.000007 -0.000001 -68.886200 15.603300 -8.708200 24.328600 0.000019 0.000005 33.445300 17.437500 -65.596800 22.291600 -0.000001 0.000005 49.458600 4.612220 14.703900 12.994500 -0.242716 -4.980390 89.486600 1.411600 -70.010800 -5.348130 -0.000001 -0.000004 -72.530600 5.949210 10.583600 -24.328900 0.000322 -0.000009 2.335330 17.661300 -7.659130 -22.291500 -0.000108 -0.000004 26.781000 5.435770 -4.138440 -2.192480 -6.469440 -0.000000 176.001000 6.560130 5.822490 39.081100 -0.000007 -0.000012 -0.004302 0.013424 17.768100 40.985400 -0.000006 -0.000013 7.336660 13.795300 -66.046900 11.754300 -0.000000 0.000003 0.001003 0.019065 -15.803500 -2.192510 6.469440 -0.000001 172.260000 -16.605300 158.725000 -39.081100 -0.002282 -0.040193 0.004518 -0.002918 22.373900 -40.985400 0.000008 0.000006 -3.385630 -16.875400 -67.791700 -11.754300 -0.000006 -0.000006 -0.002278 0.199808 -8.466600
